<?xml version="1.0" encoding="utf-8"?>
<!-- Generator: Adobe Illustrator 24.0.0, SVG Export Plug-In . SVG Version: 6.00 Build 0)  -->
<svg version="1.1" id="Layer_1" xmlns="http://www.w3.org/2000/svg" xmlns:xlink="http://www.w3.org/1999/xlink" x="0px" y="0px"
	 viewBox="0 0 156 91.7" style="enable-background:new 0 0 156 91.7;" xml:space="preserve">
<style type="text/css">
	.st0{fill:#FFFFFF;}
</style>
<g>
	<path class="st0" d="M120.9,43c-0.3-1.8-1.6-2.9-3.5-3.3c-1.3-0.2-2.6-0.3-3.9-0.3c-5.6,0-11.2-0.1-16.7,0c-2.4,0.1-3.8-0.9-5-2.9
		c-4.4-7.8-8.9-15.6-13.4-23.4c-0.9-1.6-1.8-3.2-2.8-4.8c-0.6-1.1-1.5-2.1-2.9-1.5s-1.4,1.8-1.2,3.1c0.2,1,0.4,1.9,0.6,2.9
		c1.8,7.8,3.5,15.6,5.4,23.4c0.6,2.3-0.2,3.3-2.6,3.3c-3.8,0-7.7-0.2-11.5,0.1c-3.8,0.3-6.8-0.6-8.9-4c-0.8-1.4-2.2-2.4-3.3-3.6
		c-0.7-0.7-1.6-1.4-2.6-0.6c-1.3,1.1,0,2.8,0.3,3.7c0.8,1.8,1.3,2.6,2.1,3.6c3,3.6,2.8,6.8,0.3,10.2c-0.9,1.2-1.5,2.5-2.1,3.7
		c-0.6,1.1-2,2.9-0.4,4.1c1.6,1.2,2.5-0.7,3.4-1.6c1.7-1.7,2.1-2,2.8-3.2c1.8-2.8,3.9-4,7.1-3.8C66,48.2,70,48,73.9,48
		c4,0,4.2,0.2,3.4,4.1c-0.3,1.6-0.7,3.2-1.1,4.8c-1.6,6.9-3.2,13.9-4.7,20.8c-0.3,1.2-0.4,2.5,1,3.1c1.3,0.6,2.1-0.2,2.8-1.1
		c0.3-0.3,0.5-0.7,0.7-1.1c5.3-9.3,10.7-18.6,16-27.9c1.1-2,2.5-2.8,4.7-2.7h19.9C119.2,47.9,121.3,45.6,120.9,43z"/>
	<ellipse class="st0" cx="48.7" cy="23.8" rx="24.9" ry="0.4"/>
	<ellipse class="st0" cx="49" cy="64.6" rx="24.6" ry="0.5"/>
	<rect x="19.7" y="43.3" class="st0" width="4.2" height="1.2"/>
	<rect x="27.8" y="43.3" class="st0" width="4.2" height="1.2"/>
	<rect x="126.9" y="43.3" class="st0" width="4.2" height="1.2"/>
	<rect x="135.1" y="43.3" class="st0" width="4.2" height="1.2"/>
	<rect x="35.9" y="43.3" class="st0" width="4.2" height="1.2"/>
	<rect x="44.4" y="43.3" class="st0" width="4.2" height="1.2"/>
	<circle class="st0" cx="10.6" cy="43.9" r="3.7"/>
	<circle class="st0" cx="145.4" cy="43.9" r="3.7"/>
</g>
<g>
	<path d="M253.9,38.8c-0.7,2.7-1.1,5.6-2.1,8.2c-3.4,9.2-8.6,17.3-15.2,24.5c-3.4,3.7-4.4,3.8-7.8,0c-7.1-7.8-12.7-16.5-15.9-26.5
		c-3.7-11.9,3.4-24.1,15.4-26.6c11.9-2.5,23.3,5.6,25,17.7c0.1,0.8,0.1,1.7,0.1,2.5C253.6,38.7,253.7,38.8,253.9,38.8z M232.8,47.8
		c4.9,0,8.9-4,8.8-8.9c0-4.9-4.1-9-9-8.9c-4.9,0-8.9,4.1-8.9,8.9C223.8,43.9,227.8,47.9,232.8,47.8z"/>
	<path d="M209.2,7.9c5.1,0.1,9.4,1.4,13.2,4.1c0.9,0.7,1.9,1.4,1,2.7c-0.8,1.2-1.8,0.6-2.8,0c-12.5-8.3-28.3-1-30.1,13.8
		c-0.5,3.8,0.6,7.3,2,10.8c3.6,8.7,8.6,16.5,15,23.3c2,2.1,2.2,2.1,4.3,0c0.6-0.6,1.2-1.5,1.9-1.9c0.1,0,0.1-0.1,0.2-0.1
		c1-0.4,2.1,0.4,2.1,1.5c0,0.2,0,0.4,0,0.6c0,0.1-0.2,0.2-0.2,0.3c-4.7,5.8-7,6-11.9,0.4c-7.5-8.5-13.5-17.9-16.1-29
		C185,22.6,193.9,10,206,8.3C207.1,8.1,208.4,8,209.2,7.9z"/>
	<path d="M208.7,20c0.8-0.1,1.7,0.3,2.2,1c0.1,0.2,0.2,0.3,0.2,0.5c0.2,1.1-0.6,1.5-1.6,1.7c-4,0.5-6.4,2.6-7,6
		c-0.6,3.3,0.8,6,4.1,8.1c0.6,0.4,1.1,1.5,1,2.1c-0.3,1.2-1.4,1.1-2.4,0.7c-4.2-1.7-6.8-6.9-5.8-11.5C200.2,23.9,204,20.4,208.7,20z
		"/>
</g>
</svg>
