<?xml version="1.0" encoding="utf-8"?>
<!-- Generator: Adobe Illustrator 24.0.0, SVG Export Plug-In . SVG Version: 6.00 Build 0)  -->
<svg version="1.1" id="Layer_1" xmlns="http://www.w3.org/2000/svg" xmlns:xlink="http://www.w3.org/1999/xlink" x="0px" y="0px"
	 viewBox="0 0 88.9 89.6" style="enable-background:new 0 0 88.9 89.6;" xml:space="preserve">
<style type="text/css">
	.st0{fill:#FFFFFF;}
</style>
<g>
	<path class="st0" d="M81.3,40.8c-0.7,2.7-1.1,5.6-2.1,8.2c-3.4,9.2-8.6,17.3-15.2,24.5c-3.4,3.7-4.4,3.8-7.8,0
		c-7-7.7-12.6-16.4-15.8-26.5c-3.7-11.8,3.4-24,15.4-26.5c11.9-2.5,23.3,5.6,25,17.7c0.1,0.8,0.1,1.7,0.1,2.5
		C81,40.8,81.1,40.8,81.3,40.8z M60.2,49.9c4.9,0,8.9-4,8.8-8.9c0-4.9-4.1-9-9-8.9c-4.9,0-8.9,4.1-8.9,8.9
		C51.2,45.9,55.2,49.9,60.2,49.9z"/>
	<path class="st0" d="M36.6,9.9C41.7,10,46,11.3,49.8,14c0.9,0.7,1.9,1.4,1,2.7c-0.8,1.2-1.8,0.6-2.8,0c-12.5-8.3-28.3-1-30.1,13.8
		c-0.5,3.8,0.6,7.3,2,10.8c3.6,8.7,8.6,16.5,15,23.3c2,2.1,2.2,2.1,4.3,0c0.6-0.6,1.2-1.5,1.9-1.9c0.1,0,0.1-0.1,0.2-0.1
		c1-0.4,2.1,0.4,2.1,1.5c0,0.2,0,0.4,0,0.6c0,0.1-0.2,0.2-0.2,0.3c-4.7,5.8-7,6-11.9,0.4c-7.5-8.5-13.5-17.9-16.1-29
		c-2.9-11.9,6-24.4,18.1-26.1C34.5,10.1,35.8,10,36.6,9.9z"/>
	<path class="st0" d="M36.1,22c0.8-0.1,1.7,0.3,2.2,1c0.1,0.2,0.2,0.3,0.2,0.5c0.2,1.1-0.6,1.5-1.6,1.7c-4,0.5-6.4,2.6-7,6
		c-0.6,3.3,0.8,6,4.1,8.1c0.6,0.4,1.1,1.5,1,2.1c-0.3,1.2-1.4,1.1-2.4,0.7c-4.2-1.7-6.8-6.9-5.8-11.5C27.6,26,31.4,22.5,36.1,22z"/>
</g>
</svg>
